<?xml version="1.0" encoding="utf-8"?>
<!-- Generator: Adobe Illustrator 16.0.0, SVG Export Plug-In . SVG Version: 6.00 Build 0)  -->
<!DOCTYPE svg PUBLIC "-//W3C//DTD SVG 1.1//EN" "http://www.w3.org/Graphics/SVG/1.1/DTD/svg11.dtd">
<svg version="1.1" id="Calque_1" xmlns="http://www.w3.org/2000/svg" xmlns:xlink="http://www.w3.org/1999/xlink" x="0px" y="0px"
	 width="400px" height="416px" viewBox="0 0 400 416" enable-background="new 0 0 400 416" xml:space="preserve">
<path d="M223.496,21.542c0,0-6.004-7.216-13.832-0.34c-7.824,6.876-25.332,60.032-28.664,87.632
	c-3.332,27.596-4.872,42.28-4.42,47.888s7.584,14.912,10.46,17.632c2.876,2.72,7.548,4.308,6.372,28.133
	c-1.176,23.82-6.185,143.248-7.388,156.175c-1.204,12.928-6.252,38.568,15.231,39.096c21.484,0.527,19.912-19.385,18.377-40.623
	c-1.537-21.24-7.488-137.992-6.465-155.632c1.025-17.644,4.697-82.92,5.117-99.988C218.709,84.438,223.496,21.542,223.496,21.542z"
	/>
</svg>
