<?xml version="1.0" encoding="utf-8"?>
<!-- Generator: Adobe Illustrator 16.0.0, SVG Export Plug-In . SVG Version: 6.00 Build 0)  -->
<!DOCTYPE svg PUBLIC "-//W3C//DTD SVG 1.1//EN" "http://www.w3.org/Graphics/SVG/1.1/DTD/svg11.dtd">
<svg version="1.1" id="Calque_1" xmlns="http://www.w3.org/2000/svg" xmlns:xlink="http://www.w3.org/1999/xlink" x="0px" y="0px"
	 width="400px" height="416px" viewBox="0 0 400 416" enable-background="new 0 0 400 416" xml:space="preserve">
<path d="M210.544,147.684c4.856-7.947,3.313-26.052,3.092-42.388c-0.22-16.336-6.844-69.104-8.832-69.104
	c-1.987,0-0.884,30.024-0.884,39.52c0,9.492-0.22,22.076-3.312,22.076c-3.093,0-1.988-7.728-1.988-13.468
	c0-5.74-0.22-48.128-3.313-48.128c-3.092,0-2.428,37.092-2.428,48.348s-1.104,13.248-3.092,13.248s-3.092-1.988-3.092-13.248
	c0-11.26,0.664-48.348-2.429-48.348c-3.092,0-3.312,42.388-3.312,48.128c0,5.74,1.104,13.468-1.988,13.468
	s-3.312-12.584-3.312-22.076c0-9.492,1.104-39.52-0.884-39.52c-1.988,0-8.612,52.764-8.832,69.104
	c-0.221,16.336-1.769,34.44,3.092,42.388c4.855,7.948,13.248,9.272,13.468,21.416c0.22,12.145-4.196,116.348-6.404,146.816
	c-2.208,30.468-16.336,75.064,13.688,75.064c30.023,0,15.896-44.597,13.688-75.064s-6.624-134.672-6.403-146.816
	C197.296,156.956,205.687,155.632,210.544,147.684z"/>
</svg>
